<svg id="chatbot_icon" xmlns="http://www.w3.org/2000/svg" width="38" height="33.608" viewBox="0 0 38 33.608">
  <path id="패스_1" data-name="패스 1" d="M53.779,55.13H42.287l-4.174,4.491-.1-4.491H36.248c-3.156,0-5.738-3.165-5.738-7.035V37.545c0-3.869,2.582-7.035,5.738-7.035H53.779c3.156,0,5.738,3.165,5.738,7.035V48.1C59.517,51.965,56.935,55.13,53.779,55.13Z" transform="translate(-26.013 -26.013)" fill="#a1c6ff"/>
  <path id="패스_2" data-name="패스 2" d="M60.577,73.835A2.921,2.921,0,0,1,58,70.668v-9.5A2.922,2.922,0,0,1,60.577,58H76.326A2.921,2.921,0,0,1,78.9,61.167v9.5a2.921,2.921,0,0,1-2.577,3.167H60.577Z" transform="translate(-49.452 -49.452)" fill="#e3eeff"/>
  <path id="패스_3" data-name="패스 3" d="M4.5,95.07v8.993a4.5,4.5,0,0,1,0-8.993Z" transform="translate(0 -83.192)" fill="#06f"/>
  <path id="패스_4" data-name="패스 4" d="M312.957,99.567a4.5,4.5,0,0,1-4.5,4.5V95.07A4.5,4.5,0,0,1,312.957,99.567Z" transform="translate(-274.957 -83.192)" fill="#06f"/>
  <path id="패스_5" data-name="패스 5" d="M143.467,0a4.5,4.5,0,0,0-4.5,4.5h8.995A4.5,4.5,0,0,0,143.467,0Z" transform="translate(-124.467)" fill="#06f"/>
  <g id="그룹_2" data-name="그룹 2" transform="translate(9.258 13.841)">
    <path id="패스_6" data-name="패스 6" d="M99.132,108.46a2.532,2.532,0,1,0,2.532,2.532,2.539,2.539,0,0,0-2.532-2.532Z" transform="translate(-96.6 -108.46)" fill="#0050c7"/>
    <circle id="타원_4" data-name="타원 4" cx="2.532" cy="2.532" r="2.532" transform="translate(14.42)" fill="#0050c7"/>
  </g>
</svg>
