<svg id="그룹_146" data-name="그룹 146" xmlns="http://www.w3.org/2000/svg" width="34" height="30.07" viewBox="0 0 34 30.07">
  <path id="패스_1" data-name="패스 1" d="M50.57,52.138H40.663l-3.6,3.945-.09-3.945H35.456c-2.721,0-4.946-2.781-4.946-6.18V36.69c0-3.4,2.226-6.18,4.946-6.18H50.57c2.721,0,4.946,2.781,4.946,6.18v9.27C55.517,49.357,53.291,52.138,50.57,52.138Z" transform="translate(-26.013 -26.013)" fill="#64e79c"/>
  <path id="패스_2" data-name="패스 2" d="M60.084,72C58.935,72,58,70.743,58,69.2V60.8c0-1.544.935-2.8,2.084-2.8H72.819c1.149,0,2.084,1.256,2.084,2.8v8.4c0,1.544-.935,2.8-2.084,2.8H60.084Z" transform="translate(-49.452 -49.452)" fill="#aaf1c8"/>
  <path id="패스_3" data-name="패스 3" d="M4.5,95.07v8.993a4.5,4.5,0,0,1,0-8.993Z" transform="translate(0 -84.899)" fill="#0fdb66"/>
  <path id="패스_4" data-name="패스 4" d="M312.957,99.567a4.5,4.5,0,0,1-4.5,4.5V95.07A4.5,4.5,0,0,1,312.957,99.567Z" transform="translate(-278.957 -84.899)" fill="#0fdb66"/>
  <path id="패스_5" data-name="패스 5" d="M143.467,0a4.5,4.5,0,0,0-4.5,4.5h8.995A4.5,4.5,0,0,0,143.467,0Z" transform="translate(-126.467)" fill="#0fdb66"/>
  <g id="그룹_2" data-name="그룹 2" transform="translate(7.258 12.126)">
    <path id="패스_6" data-name="패스 6" d="M98.35,108.46a1.75,1.75,0,1,0,1.75,1.75,1.755,1.755,0,0,0-1.75-1.75Z" transform="translate(-93.6 -108.46)" fill="#10773c"/>
    <circle id="타원_4" data-name="타원 4" cx="1.75" cy="1.75" r="1.75" transform="translate(13.42)" fill="#10773c"/>
  </g>
</svg>
