<svg id="star" xmlns="http://www.w3.org/2000/svg" width="20" height="19.3" viewBox="0 0 13 12.412">
  <path id="star-2" data-name="star" d="M12.59,15.5,8.5,15.157l-1.59-3.78A.45.45,0,0,0,6.5,11.1a.439.439,0,0,0-.412.277L4.5,15.157.411,15.5a.444.444,0,0,0-.39.308.462.462,0,0,0,.135.48l3.1,2.677-.93,3.99a.449.449,0,0,0,.668.488L6.5,21.322l3.51,2.122a.44.44,0,0,0,.232.067.473.473,0,0,0,.263-.083.436.436,0,0,0,.173-.465l-.93-3.99,3.1-2.677a.462.462,0,0,0,.135-.48A.441.441,0,0,0,12.59,15.5Z" transform="translate(-0.001 -11.1)" fill="#fff"/>
</svg>
