<svg xmlns="http://www.w3.org/2000/svg" width="45" height="36" viewBox="0 0 45 36">
  <path id="Icon_awesome-robot" data-name="Icon awesome-robot" d="M0,18v9a2.248,2.248,0,0,0,2.25,2.25H4.5V15.75H2.25A2.248,2.248,0,0,0,0,18ZM32.625,6.75H24.75V2.25a2.25,2.25,0,0,0-4.5,0v4.5H12.375A5.623,5.623,0,0,0,6.75,12.375V31.5a4.5,4.5,0,0,0,4.5,4.5h22.5a4.5,4.5,0,0,0,4.5-4.5V12.375A5.623,5.623,0,0,0,32.625,6.75ZM18,29.25H13.5V27H18Zm-2.25-8.437A2.813,2.813,0,1,1,18.563,18,2.812,2.812,0,0,1,15.75,20.813Zm9,8.438h-4.5V27h4.5Zm6.75,0H27V27h4.5Zm-2.25-8.437A2.813,2.813,0,1,1,32.063,18,2.812,2.812,0,0,1,29.25,20.813Zm13.5-5.062H40.5v13.5h2.25A2.248,2.248,0,0,0,45,27V18A2.248,2.248,0,0,0,42.75,15.75Z" fill="#fff"/>
</svg>
