<svg id="구성_요소_22_1" data-name="구성 요소 22 – 1" xmlns="http://www.w3.org/2000/svg" width="32" height="32" viewBox="0 0 32 32">
  <rect id="사각형_376" data-name="사각형 376" width="32" height="32" rx="4" fill="#d5d8e6"/>
  <path id="Icon_open-magnifying-glass" data-name="Icon open-magnifying-glass" d="M7.8-.023a7.8,7.8,0,1,0,0,15.609,7.714,7.714,0,0,0,3.7-.914,2.23,2.23,0,0,0,.29.29l2.23,2.23a2.274,2.274,0,1,0,3.211-3.211l-2.23-2.23a2.23,2.23,0,0,0-.357-.29,7.7,7.7,0,0,0,.981-3.7,7.813,7.813,0,0,0-7.8-7.8Zm0,2.23a5.548,5.548,0,0,1,5.575,5.575,5.591,5.591,0,0,1-1.472,3.835l-.067.067a2.23,2.23,0,0,0-.29.29,5.58,5.58,0,0,1-3.768,1.4,5.575,5.575,0,1,1,0-11.149Z" transform="translate(7 7.045)" fill="#fff"/>
</svg>
