<svg xmlns="http://www.w3.org/2000/svg" width="56" height="62.752" viewBox="0 0 56 62.752">
  <path id="패스_33" data-name="패스 33" d="M57.71,40.5A6.16,6.16,0,0,0,53.8,41.952l-9.069-5.229a8.572,8.572,0,0,0,0-5.56L53.8,25.933a5.939,5.939,0,0,0,3.905,1.456,6.09,6.09,0,1,0-6.09-6.09,5.145,5.145,0,0,0,.132,1.059l-9.069,5.229a9.452,9.452,0,0,0-4.832-2.846V14.283a6.09,6.09,0,1,0-4.1,0V24.741a9.351,9.351,0,0,0-4.832,2.78l-9.069-5.229a5.794,5.794,0,0,0,.132-1.059,6.09,6.09,0,1,0-6.09,6.09A6.16,6.16,0,0,0,17.8,25.866L26.864,31.1a8.572,8.572,0,0,0,0,5.56L17.8,41.885a5.939,5.939,0,0,0-3.905-1.456,6.09,6.09,0,1,0,6.09,6.09,5.145,5.145,0,0,0-.132-1.059l9.069-5.229a8.923,8.923,0,0,0,4.832,2.78V53.469a6.09,6.09,0,1,0,4.1,0V43.143A9.022,9.022,0,0,0,42.684,40.3l9.069,5.229a5.794,5.794,0,0,0-.132,1.059,6.09,6.09,0,1,0,12.18,0A6.16,6.16,0,0,0,57.71,40.5ZM35.734,39.238a5.3,5.3,0,1,1,5.3-5.3A5.311,5.311,0,0,1,35.734,39.238Z" transform="translate(-7.8 -2.5)" fill="#5f6374"/>
</svg>
