<svg xmlns="http://www.w3.org/2000/svg" width="24" height="24" viewBox="0 0 24 24">
  <path id="Icon_ionic-ios-analytics" data-name="Icon ionic-ios-analytics" d="M15.375,3.375a12,12,0,1,0,12,12A12,12,0,0,0,15.375,3.375Zm-10.385,12a10.386,10.386,0,0,1,20.763-.438,3.512,3.512,0,0,0-2.527-1.385c-1.587,0-2.406,1.483-2.942,2.463-.081.144-.156.283-.225.4a2.856,2.856,0,0,1-2.452,1.667,2.335,2.335,0,0,1-1.858-1.662A4.5,4.5,0,0,0,12.7,13.587a2.747,2.747,0,0,0-2.579,1.235c-.185.231-.4.542-.64.9-.6.894-1.512,2.238-2.2,2.354a2.636,2.636,0,0,1-2.1-.71A10.347,10.347,0,0,1,4.99,15.375Z" transform="translate(-3.375 -3.375)" fill="#000000"/>
</svg>
