<svg xmlns="http://www.w3.org/2000/svg" width="24" height="24" viewBox="0 0 24 24">
  <path id="Icon_open-dashboard" data-name="Icon open-dashboard" d="M12,0A12,12,0,1,0,24,12,12.035,12.035,0,0,0,12,0Zm0,3a9,9,0,1,1-9,9A8.988,8.988,0,0,1,12,3Zm0,3a1.5,1.5,0,1,0,1.5,1.5A1.485,1.485,0,0,0,12,6ZM7.02,9a1.5,1.5,0,0,0-.57,2.52l2.73,2.73A3.046,3.046,0,0,0,9,15a3,3,0,1,0,3-3,3.046,3.046,0,0,0-.75.18L8.52,9.45A1.5,1.5,0,0,0,7.2,8.97a1.5,1.5,0,0,0-.18,0ZM16.5,9A1.5,1.5,0,1,0,18,10.5,1.485,1.485,0,0,0,16.5,9Z" fill="#000000"/>
</svg>
