<?xml version="1.0" encoding="utf-8"?>
<!-- Generator: Adobe Illustrator 24.0.1, SVG Export Plug-In . SVG Version: 6.00 Build 0)  -->
<svg version="1.1" id="Capa_1" xmlns="http://www.w3.org/2000/svg" xmlns:xlink="http://www.w3.org/1999/xlink" x="0px" y="0px"
	 viewBox="0 0 18 18" style="enable-background:new 0 0 18 18;" xml:space="preserve">
<style type="text/css">
	.st0{fill:#FFFFFF;}
</style>
<g>
	<g>
		<g>
			<path class="st0" d="M16.1,2.6H1.9C0.9,2.6,0,3.4,0,4.5v9c0,1.1,0.9,1.9,1.9,1.9h14.1c1.1,0,1.9-0.9,1.9-1.9v-9
				C18,3.4,17.1,2.6,16.1,2.6z M16.7,10l-4-4c-0.3-0.3-0.7-0.3-0.9,0l-5.3,5.3L4.3,9.2c-0.3-0.3-0.7-0.3-0.9,0l-2.1,2.1V4.5
				c0-0.4,0.3-0.6,0.6-0.6h14.1c0.4,0,0.6,0.3,0.6,0.6L16.7,10L16.7,10z"/>
		</g>
	</g>
	<g>
		<g>
			<circle class="st0" cx="5.8" cy="7.1" r="1.9"/>
		</g>
	</g>
</g>
</svg>
