<svg id="chatbot_icon" xmlns="http://www.w3.org/2000/svg" width="43" height="38.03" viewBox="0 0 43 38.03">
  <path id="패스_1" data-name="패스 1" d="M57.79,58.87H44.317l-4.894,5.173L39.3,58.87H37.237c-3.7,0-6.727-3.646-6.727-8.1V38.613c0-4.457,3.027-8.1,6.727-8.1H57.79c3.7,0,6.727,3.646,6.727,8.1V50.768C64.517,55.224,61.49,58.87,57.79,58.87Z" transform="translate(-26.013 -26.013)" fill="#a1c6ff"/>
  <path id="패스_2" data-name="패스 2" d="M61.194,78.257c-1.761,0-3.194-1.817-3.194-4.052V62.052C58,59.817,59.434,58,61.194,58H80.71c1.761,0,3.194,1.817,3.194,4.052V74.207c0,2.234-1.432,4.052-3.194,4.052H61.194Z" transform="translate(-49.452 -49.452)" fill="#e3eeff"/>
  <path id="패스_3" data-name="패스 3" d="M4.5,95.07v8.993a4.5,4.5,0,0,1,0-8.993Z" transform="translate(0 -81.058)" fill="#06f"/>
  <path id="패스_4" data-name="패스 4" d="M312.957,99.567a4.5,4.5,0,0,1-4.5,4.5V95.07A4.5,4.5,0,0,1,312.957,99.567Z" transform="translate(-269.957 -81.058)" fill="#06f"/>
  <path id="패스_5" data-name="패스 5" d="M143.467,0a4.5,4.5,0,0,0-4.5,4.5h8.995A4.5,4.5,0,0,0,143.467,0Z" transform="translate(-121.967)" fill="#06f"/>
  <g id="그룹_2" data-name="그룹 2" transform="translate(10.758 15.985)">
    <path id="패스_6" data-name="패스 6" d="M99.132,108.46a2.532,2.532,0,1,0,2.532,2.532,2.539,2.539,0,0,0-2.532-2.532Z" transform="translate(-95.6 -108.46)" fill="#0050c7"/>
    <circle id="타원_4" data-name="타원 4" cx="2.532" cy="2.532" r="2.532" transform="translate(15.42)" fill="#0050c7"/>
  </g>
</svg>
