<svg xmlns="http://www.w3.org/2000/svg" width="15" height="11" viewBox="0 0 15 11">
  <g id="icon-right-direction" transform="translate(15 11) rotate(180)">
    <g id="그룹_25" data-name="그룹 25" transform="translate(0 0)">
      <path id="패스_37" data-name="패스 37" d="M0,60.578a.6.6,0,0,0,.6.593H12.821L8.444,65.038a.591.591,0,0,0-.05.841.61.61,0,0,0,.45.2.626.626,0,0,0,.4-.148L14.8,61.023a.582.582,0,0,0,.2-.445.6.6,0,0,0-.2-.445L9.244,55.228a.605.605,0,0,0-.849.049.591.591,0,0,0,.05.841l4.377,3.867H.6A.6.6,0,0,0,0,60.578Z" transform="translate(0 -55.077)"/>
    </g>
  </g>
</svg>
