<svg id="icon-web-page-home" xmlns="http://www.w3.org/2000/svg" width="15" height="13.377" viewBox="0 0 15 13.377">
  <g id="그룹_8" data-name="그룹 8" transform="translate(0 0)">
    <path id="패스_14" data-name="패스 14" d="M.518,34.319H1.74v4.887a.525.525,0,0,0,.524.524H5.842a.525.525,0,0,0,.524-.524V35.628H8.547v3.578a.525.525,0,0,0,.524.524h3.4A.525.525,0,0,0,13,39.206V34.319h1.484a.521.521,0,0,0,.367-.89L8.024,26.508A.522.522,0,0,0,7.29,26.5L.16,33.42A.524.524,0,0,0,.038,34,.51.51,0,0,0,.518,34.319Zm7.121-6.7,5.585,5.655h-.751a.525.525,0,0,0-.524.524v4.887H9.594V35.1a.525.525,0,0,0-.524-.524H5.842a.525.525,0,0,0-.524.524v3.578H2.787V33.8a.525.525,0,0,0-.524-.524H1.81Z" transform="translate(0 -26.353)"/>
  </g>
</svg>
